<?xml version="1.0" encoding="UTF-8"?>
<svg width="32px" height="31px" viewBox="0 0 32 31" xmlns="http://www.w3.org/2000/svg" xmlns:xlink="http://www.w3.org/1999/xlink" version="1.1">
 <!-- Generated by Pixelmator Pro 2.0.5 -->
 <g id="Layer_2">
  <g id="Surfaces">
   <g id="Video_Audio_Surface">
    <g id="Outline_no_shadow">
     <path id="路径" d="M32 15.5 L32 25.37 C32 28.479 29.463 31 26.333 31 L5.667 31 C2.537 31 0 28.479 0 25.37 L0 5.63 C0 2.521 2.537 0 5.667 0 L26.333 0 C29.463 0 32 2.521 32 5.63 Z" fill="#00005b" fill-opacity="1" stroke="none"/>
    </g>
   </g>
  </g>
  <g id="Outlined_Mnemonics_Logos">
   <g id="Pl">
    <path id="路径-1" d="M8.21 21.739 L8.21 8.11 C8.21 8.011 8.253 7.961 8.339 7.961 Q8.682 7.961 9.154 7.95 9.626 7.939 10.174 7.929 10.722 7.918 11.333 7.907 11.945 7.897 12.546 7.897 14.177 7.897 15.294 8.302 C15.965 8.527 16.578 8.899 17.086 9.39 17.518 9.815 17.851 10.328 18.063 10.893 18.264 11.444 18.366 12.025 18.364 12.61 Q18.364 14.317 17.569 15.426 C17.036 16.168 16.287 16.73 15.423 17.036 14.459 17.381 13.441 17.551 12.417 17.537 Q11.945 17.537 11.752 17.527 11.559 17.516 11.172 17.516 L11.172 21.718 C11.18 21.771 11.162 21.824 11.124 21.862 11.086 21.9 11.032 21.917 10.979 21.91 L8.36 21.91 C8.26 21.91 8.21 21.853 8.21 21.739 Z M11.172 10.52 L11.172 14.935 Q11.451 14.957 11.688 14.956 L12.396 14.956 C12.916 14.964 13.433 14.892 13.931 14.743 14.356 14.618 14.736 14.373 15.026 14.039 Q15.444 13.549 15.444 12.674 C15.456 12.262 15.348 11.855 15.133 11.501 14.907 11.159 14.581 10.895 14.199 10.744 13.7 10.551 13.167 10.461 12.632 10.477 Q12.117 10.477 11.72 10.488 11.322 10.499 11.172 10.52 Z" fill="#9999ff" fill-opacity="1" stroke="none"/>
    <path id="路径-2" d="M19.566 19.158 L19.566 6.958 Q19.566 6.788 19.759 6.787 L22.357 6.787 Q22.55 6.787 22.55 6.958 L22.55 18.902 Q22.55 19.35 22.711 19.542 22.872 19.734 23.258 19.734 C23.323 19.736 23.387 19.732 23.451 19.724 Q23.516 19.713 23.645 19.692 C23.667 19.69 23.689 19.694 23.709 19.702 23.723 19.71 23.73 19.756 23.73 19.841 L23.73 21.675 C23.733 21.732 23.729 21.789 23.72 21.846 Q23.709 21.889 23.623 21.931 C23.449 21.992 23.269 22.039 23.086 22.07 22.817 22.11 22.544 22.128 22.271 22.123 21.798 22.131 21.328 22.047 20.886 21.878 20.467 21.704 20.124 21.386 19.92 20.982 Q19.566 20.332 19.566 19.158 Z" fill="#9999ff" fill-opacity="1" stroke="none"/>
   </g>
  </g>
 </g>
</svg>
